<svg width="60" height="60" viewBox="0 0 60 60" fill="none" xmlns="http://www.w3.org/2000/svg">
  <circle cx="30" cy="30" r="30" fill="#451D07"/>
  <path d="M 46.106 26.818 C 46.072 26.635 46.03 26.459 45.962 26.291 C 45.988 26.251 51.562 18.857 46.399 14.287 C 41.245 9.715 35.226 15.677 35.192 15.71 C 34.235 15.421 33.269 15.246 32.313 15.166 C 32.313 15.166 32.313 15.166 32.304 15.166 C 30.341 14.854 27.587 15.166 27.587 15.166 C 26.639 15.246 25.681 15.421 24.733 15.7 C 24.7 15.669 18.68 9.707 13.526 14.279 C 8.372 18.851 13.936 26.251 13.963 26.284 C 13.903 26.459 13.854 26.635 13.82 26.812 C 13.266 29.975 9.463 30.951 9.463 36.466 C 9.463 42.085 13.434 46.513 21.543 46.513 L 24.868 46.513 C 24.884 46.528 26.168 48.271 28.821 48.374 C 28.821 48.374 29.433 48.437 30.844 48.39 C 33.657 48.39 35.024 46.544 35.033 46.52 L 38.357 46.52 C 46.466 46.52 50.437 42.092 50.437 36.474 C 50.462 30.967 46.659 29.984 46.106 26.818 Z" fill="#FEB72C" style=""/>
  <path d="M 39.161 28.464 C 39.538 25.885 37.62 24.499 34.999 23.574 L 35.85 20.08 L 33.773 19.549 L 32.945 22.951 C 32.399 22.812 31.839 22.681 31.281 22.551 L 32.115 19.126 L 30.039 18.597 L 29.189 22.089 C 28.737 21.984 28.294 21.88 27.863 21.77 L 27.866 21.759 L 25.002 21.027 L 24.449 23.298 C 24.449 23.298 25.99 23.66 25.957 23.681 C 26.798 23.897 26.95 24.467 26.924 24.919 L 25.957 28.9 C 26.015 28.914 26.089 28.936 26.172 28.97 C 26.103 28.953 26.03 28.933 25.953 28.914 L 24.594 34.49 C 24.493 34.752 24.231 35.143 23.643 34.994 C 23.664 35.025 22.133 34.608 22.133 34.608 L 21.103 37.043 L 23.805 37.733 C 24.308 37.862 24.801 37.996 25.285 38.124 L 24.426 41.658 L 26.5 42.187 L 27.351 38.692 C 27.918 38.85 28.468 38.994 29.006 39.131 L 28.158 42.611 L 30.234 43.141 L 31.094 39.613 C 34.635 40.301 37.297 40.024 38.417 36.743 C 39.321 34.103 38.373 32.579 36.51 31.587 C 37.866 31.266 38.888 30.353 39.161 28.464 Z M 34.417 35.277 C 33.775 37.918 29.433 36.491 28.026 36.132 L 29.167 31.451 C 30.574 31.81 35.087 32.523 34.417 35.277 Z M 35.059 28.426 C 34.474 30.827 30.86 29.608 29.688 29.308 L 30.722 25.063 C 31.893 25.361 35.668 25.92 35.059 28.426 Z" fill="#0E0A30" style=""/>
</svg>