<svg width="82" height="83" viewBox="0 0 82 83" fill="#000000" xmlns="http://www.w3.org/2000/svg">
  <!-- Circle background -->
  <circle cx="40.9483" cy="41.8433" r="38.8564" stroke="url(#paint0_linear_10823_30159)" stroke-width="4.09015"/>
  <circle cx="40.9483" cy="41.8433" r="38.8564" stroke="url(#paint1_linear_10823_30159)" stroke-width="4.09015" style="mix-blend-mode: overlay;"/>

  <!-- Centered Ethereum logo -->
  <g transform="translate(28.5, 20)">
    <g clip-path="url(#clip0_10823_30168)">
      <path fill="#ffffff" stroke="#ffffff" d="M12.0061 27.0446L0.396341 20.9832V20.9937C0.270717 20.9204 0.176498 20.8053 0.134624 20.6692C0.0927487 20.5331 0.113686 20.3865 0.186967 20.2609L11.7968 0.454091C11.9852 0.129561 12.5086 0.129561 12.6971 0.454091L24.3069 20.2504C24.3802 20.3761 24.4011 20.5226 24.3592 20.6587C24.3174 20.8053 24.2231 20.9204 24.0975 20.9832L12.4877 27.0446C12.4144 27.0865 12.3307 27.1074 12.2469 27.1074C12.1632 27.1074 12.0794 27.0865 12.0061 27.0446ZM23.1239 20.3132L12.2469 1.75221L1.36993 20.3132L12.2469 25.9873L23.1239 20.3132ZM24.3784 24.8045V24.8359V24.8569L24.3574 24.8464V33.4622V33.4936V33.5459C24.3546 33.5543 24.3518 33.562 24.3492 33.5691C24.3421 33.5885 24.3365 33.6039 24.3365 33.6192C24.3312 33.6297 24.326 33.6427 24.3208 33.6558C24.3155 33.6689 24.3103 33.682 24.3051 33.6925V33.7239L24.2946 33.7343C24.2894 33.7448 24.2815 33.7527 24.2737 33.7605C24.2658 33.7684 24.258 33.7762 24.2527 33.7867C24.2318 33.8181 24.2109 33.839 24.1794 33.86C24.1585 33.8704 24.1376 33.9018 24.1376 33.9018L12.5278 41.3032H12.5068C12.4964 41.3032 12.4859 41.3137 12.4859 41.3137C12.4126 41.3556 12.3289 41.3765 12.2451 41.3765C12.1614 41.3765 12.0776 41.3556 12.0043 41.3137C11.9939 41.3137 11.9834 41.3032 11.9834 41.3032H11.9625L0.352656 33.9018C0.338059 33.8945 0.32855 33.8822 0.320582 33.8718C0.317121 33.8673 0.313951 33.8631 0.310781 33.86C0.30415 33.8533 0.29647 33.8467 0.288404 33.8397C0.271001 33.8247 0.251806 33.8081 0.2375 33.7867C0.227031 33.7762 0.206093 33.7553 0.195625 33.7343L0.185156 33.7239V33.6925C0.182278 33.6867 0.178608 33.681 0.174799 33.675C0.164757 33.6592 0.15375 33.642 0.15375 33.6192C0.150945 33.6108 0.148139 33.6031 0.145535 33.596C0.138422 33.5766 0.132812 33.5612 0.132812 33.5459V33.4936V33.4622V24.8464V24.8255V24.7941C0.143281 24.6894 0.185156 24.5951 0.247968 24.5219V24.5009H0.258437L0.258448 24.5009C0.268921 24.4904 0.289851 24.4695 0.310781 24.4591L0.404999 24.3962C0.425936 24.3858 0.446874 24.3753 0.467811 24.3753L0.467834 24.3753C0.509701 24.3648 0.551569 24.3544 0.593436 24.3544H0.635311H0.666717C0.701404 24.3544 0.728907 24.3616 0.761128 24.37C0.767805 24.3717 0.774685 24.3735 0.781873 24.3753C0.80281 24.3753 0.834216 24.3858 0.855154 24.3962H0.88656L12.2661 30.6775L23.6246 24.4067H23.656C23.677 24.3962 23.7084 24.3858 23.7293 24.3858C23.7607 24.3753 23.8026 24.3648 23.8444 24.3648H23.8759H23.9177C23.9491 24.3648 23.991 24.3753 24.0329 24.3858L24.0329 24.3858C24.0643 24.3858 24.0852 24.3962 24.1062 24.4067C24.1271 24.4137 24.148 24.43 24.169 24.4463C24.1794 24.4544 24.1899 24.4625 24.2004 24.4695C24.2047 24.4739 24.2109 24.4782 24.218 24.4833C24.2282 24.4905 24.2405 24.4991 24.2527 24.5114H24.2632V24.5323C24.326 24.6056 24.3784 24.6998 24.3784 24.8045ZM4.26795 30.7508L1.15875 26.4691V32.5514L4.26795 30.7508ZM10.2037 38.9478L4.88561 31.6092L1.64031 33.4936L10.2037 38.9478ZM20.2223 30.7612L23.3315 32.5618V26.4795L20.2223 30.7612ZM22.8499 33.4936L19.6046 31.6092L14.2865 38.9478L22.8499 33.4936ZM12.4964 31.7243C12.3393 31.8081 12.1509 31.8081 11.9939 31.7243L2.43593 26.4481L12.2451 39.9737L22.0543 26.4481L12.4964 31.7243Z"/>
    </g>
  </g>

  <!-- Gradients and clip paths -->
  <defs>
    <linearGradient id="paint0_linear_10823_30159" x1="4.58232" y1="52.1046" x2="80.8738" y2="34.233" gradientUnits="userSpaceOnUse">
      <stop stop-color="#E1E1E1"/>
      <stop offset="0.172016" stop-color="#B9BEBE"/>
      <stop offset="0.45741" stop-color="#AEC4C0"/>
      <stop offset="0.553567" stop-color="#CBC4CD"/>
      <stop offset="0.823421" stop-color="#838C8E"/>
      <stop offset="0.925155" stop-color="#B5B5B5"/>
      <stop offset="1" stop-color="#7C8486"/>
    </linearGradient>
    <linearGradient id="paint1_linear_10823_30159" x1="22.4572" y1="31.8781" x2="26.6203" y2="64.8836" gradientUnits="userSpaceOnUse">
      <stop offset="0.489583" stop-color="#8F00FF"/>
      <stop offset="0.78125" stop-color="#FF39EB"/>
    </linearGradient>
    <clipPath id="clip0_10823_30168">
      <rect width="24.2665" height="41.1839" fill="white" transform="translate(0.113281 0.212891)"/>
    </clipPath>
  </defs>
</svg>