<svg width="25" height="28" viewBox="0 0 25 28" fill="black" xmlns="http://www.w3.org/2000/svg" class="flex-none sm:hidden sm:h-auto pointer-events-auto"><path fill-rule="evenodd" clip-rule="evenodd" d="M13.5 0.5C6.04427 0.5 0 6.54414 0 14C0 21.4559 6.04427 27.5 13.5 27.5C16.069 27.5 18.1934 25.7208 19.0874 23.3974C19.1427 23.2537 19.1968 23.1093 19.2496 22.9642C22.3176 21.1579 24.3782 17.8199 24.3782 14C24.3782 10.1802 22.3176 6.8422 19.2496 5.03576C19.1968 4.89078 19.1427 4.74637 19.0873 4.60258C18.1933 2.27923 16.069 0.5 13.5 0.5ZM19.0306 22.9578L19.3122 22.7905C19.3811 22.5972 19.4478 22.4029 19.5123 22.2075C19.2946 22.3545 19.0708 22.493 18.8413 22.6226C18.9281 22.379 19.0114 22.1337 19.091 21.8868C18.9292 21.9919 18.7639 22.0921 18.5954 22.1872L18.8413 22.6226L18.3702 22.4549C18.3097 22.6248 18.2474 22.794 18.1832 22.9623C18.4073 22.8571 18.6268 22.7437 18.8413 22.6226C18.7728 22.8148 18.7021 23.0061 18.6291 23.1961L19.0306 22.9578ZM18.9034 5.5537L18.5954 5.81279C18.7639 5.90794 18.9292 6.00814 19.091 6.11317C19.0305 5.92573 18.968 5.73923 18.9034 5.5537ZM19.0024 5.47041C19.1758 5.5727 19.3459 5.68013 19.5123 5.79249C19.4479 5.5972 19.3812 5.40292 19.3123 5.20968L19.0024 5.47041ZM13.9826 4.60453C15.5937 4.60453 17.1089 5.00968 18.4329 5.72316C19.3348 8.31482 19.8251 11.0996 19.8251 14C19.8251 16.9004 19.3348 19.6853 18.4329 22.2769C17.1089 22.9904 15.5937 23.3955 13.9826 23.3955C8.79368 23.3955 4.58713 19.1889 4.58713 14C4.58713 8.81107 8.79368 4.60453 13.9826 4.60453Z" fill="black"/><path d="M18.8413 22.6226L18.3702 22.4549C18.3097 22.6248 18.2474 22.794 18.1832 22.9623C18.4073 22.8571 18.6268 22.7437 18.8413 22.6226Z" fill="black"/><path d="M18.8413 22.6226C18.7728 22.8148 18.7021 23.0061 18.6291 23.1961L19.0306 22.9578L18.8413 22.6226Z" fill="black"/><path d="M19.0306 22.9578L19.3122 22.7905C19.3811 22.5972 19.4478 22.4029 19.5123 22.2075C19.2946 22.3545 19.0708 22.493 18.8413 22.6226L19.0306 22.9578Z" fill="black"/><path d="M18.8413 22.6226C18.9281 22.379 19.0114 22.1337 19.091 21.8868C18.9292 21.9919 18.7639 22.0921 18.5954 22.1872L18.8413 22.6226Z" fill="black"/><path d="M18.9034 5.5537L18.5954 5.81279C18.7639 5.90794 18.9292 6.00814 19.091 6.11317C19.0305 5.92573 18.968 5.73923 18.9034 5.5537Z" fill="black"/><path d="M19.5123 5.79249C19.3459 5.68013 19.1758 5.5727 19.0024 5.47041L19.3123 5.20968C19.3812 5.40292 19.4479 5.5972 19.5123 5.79249Z" fill="black"/></svg>